<?xml version="1.0" standalone="no"?>
<!DOCTYPE svg PUBLIC "-//W3C//DTD SVG 20010904//EN"
 "http://www.w3.org/TR/2001/REC-SVG-20010904/DTD/svg10.dtd">
<svg version="1.0" xmlns="http://www.w3.org/2000/svg"
 width="208.000000pt" height="204.000000pt" viewBox="0 0 208.000000 204.000000"
 preserveAspectRatio="xMidYMid meet">

<g transform="translate(0.000000,204.000000) scale(0.100000,-0.100000)"
fill="#000000" stroke="none">
<path d="M237 2003 c-3 -16 -1 -32 4 -37 5 -6 9 4 9 27 0 44 -6 48 -13 10z"/>
<path d="M267 2018 c6 -7 13 -24 16 -38 4 -21 4 -20 6 8 1 41 31 46 31 5 0
-22 2 -25 10 -13 9 13 11 13 20 0 8 -11 10 -8 7 15 -3 28 -6 30 -52 33 -39 3
-46 1 -38 -10z m83 -2 c0 -3 -4 -8 -10 -11 -5 -3 -10 -1 -10 4 0 6 5 11 10 11
6 0 10 -2 10 -4z"/>
<path d="M373 2015 c-3 -9 -3 -19 1 -22 3 -4 6 1 6 10 0 10 5 17 10 17 6 0 10
-12 10 -26 0 -14 4 -23 9 -20 4 3 6 17 3 31 -5 28 -29 34 -39 10z"/>
<path d="M461 2003 c-1 -27 3 -33 19 -33 16 0 20 7 20 30 0 17 -4 30 -9 30 -4
0 -6 -11 -3 -25 2 -14 0 -25 -6 -25 -6 0 -13 12 -15 28 -4 25 -4 25 -6 -5z"/>
<path d="M510 2000 c0 -25 4 -30 23 -29 17 1 18 2 4 6 -12 3 -16 12 -13 29 3
13 0 24 -5 24 -5 0 -9 -13 -9 -30z"/>
<path d="M595 2000 c0 -23 4 -30 20 -30 14 0 16 3 7 9 -7 4 -12 12 -11 17 3
17 -1 34 -8 34 -5 0 -8 -13 -8 -30z"/>
<path d="M640 2020 c0 -6 7 -13 15 -16 8 -4 15 -11 15 -16 0 -6 -7 -8 -15 -4
-8 3 -15 1 -15 -4 0 -6 9 -10 20 -10 23 0 27 28 5 36 -8 4 -12 10 -9 15 3 5 0
9 -5 9 -6 0 -11 -5 -11 -10z"/>
<path d="M711 1998 c2 -31 2 -31 6 -5 2 15 10 27 18 27 8 0 15 -12 17 -27 4
-39 31 -36 39 5 3 17 3 32 -2 32 -5 0 -9 -13 -9 -30 0 -16 -4 -30 -10 -30 -5
0 -10 14 -10 30 0 25 -4 30 -25 30 -22 0 -25 -4 -24 -32z"/>
<path d="M810 1995 c0 -29 3 -36 18 -33 11 2 17 13 17 33 0 20 -6 31 -17 33
-15 3 -18 -4 -18 -33z m30 0 c0 -14 -4 -25 -10 -25 -5 0 -10 11 -10 25 0 14 5
25 10 25 6 0 10 -11 10 -25z"/>
<path d="M107 2013 c-11 -10 -8 -51 4 -59 6 -3 16 -1 22 5 9 9 8 11 -5 6 -15
-6 -18 -2 -18 20 0 20 4 26 15 21 8 -3 15 -1 15 4 0 11 -23 13 -33 3z"/>
<path d="M150 1990 c0 -16 5 -30 12 -30 6 0 8 3 5 7 -4 3 -2 12 4 20 9 10 8
13 -2 14 -8 0 -5 4 6 9 19 8 19 9 -2 9 -19 1 -23 -4 -23 -29z"/>
<path d="M200 2005 c0 -8 7 -15 15 -15 9 0 12 6 9 15 -4 8 -10 15 -15 15 -5 0
-9 -7 -9 -15z"/>
<path d="M860 1990 c0 -16 2 -30 4 -30 2 0 6 14 8 30 3 17 1 30 -4 30 -4 0 -8
-13 -8 -30z"/>
<path d="M891 1988 c2 -31 2 -31 6 -5 2 15 9 27 15 27 6 0 8 -11 6 -25 -3 -14
-1 -25 3 -25 5 0 9 14 9 30 0 23 -4 30 -20 30 -16 0 -20 -6 -19 -32z"/>
<path d="M946 2011 c-6 -9 -4 -18 7 -26 22 -16 22 -29 0 -20 -14 5 -15 3 -6
-6 6 -6 16 -8 22 -5 13 9 15 36 2 36 -5 0 -11 8 -13 18 -3 14 -5 14 -12 3z"/>
<path d="M1026 2002 c6 -4 14 -14 17 -22 4 -12 6 -11 6 3 1 10 6 15 11 12 6
-3 10 -1 10 4 0 6 -12 11 -27 11 -16 0 -23 -4 -17 -8z"/>
<path d="M1078 1970 c-3 -16 -1 -30 4 -30 4 0 8 3 9 8 0 4 2 17 3 30 4 33 -11
27 -16 -8z"/>
<path d="M1127 1968 c-7 -27 -1 -38 21 -37 15 1 15 2 1 6 -11 3 -15 12 -11 28
5 31 -4 33 -11 3z"/>
<path d="M1182 1984 c4 -3 2 -19 -2 -35 -5 -18 -5 -27 1 -24 5 4 9 14 10 23 0
12 3 9 10 -7 5 -13 12 -21 16 -18 8 9 -17 67 -30 67 -6 0 -8 -3 -5 -6z"/>
<path d="M1237 1943 c-3 -16 0 -31 6 -35 17 -10 37 11 37 38 0 36 -36 32 -43
-3z m33 -2 c0 -20 -13 -35 -23 -25 -7 8 4 44 14 44 5 0 9 -9 9 -19z"/>
<path d="M1296 1935 c-4 -14 -4 -30 -1 -35 8 -13 25 -13 25 1 0 5 -5 7 -11 3
-8 -4 -9 3 -4 25 8 37 0 42 -9 6z"/>
<path d="M1340 1929 c-6 -11 -10 -25 -8 -30 2 -5 8 4 15 21 13 34 9 40 -7 9z"/>
<path d="M1370 1924 c0 -11 -5 -25 -12 -32 -9 -9 -9 -12 0 -12 13 0 28 47 18
57 -3 4 -6 -3 -6 -13z"/>
<path d="M1395 1919 c-4 -6 -4 -13 -1 -16 3 -4 6 -1 6 6 0 8 8 10 23 6 17 -5
19 -4 7 4 -19 14 -27 14 -35 0z"/>
<path d="M157 1746 c-81 -85 -147 -157 -147 -162 0 -4 37 -4 83 -2 l84 6 9
-31 c8 -25 18 -32 64 -46 l55 -17 3 -66 3 -67 -44 -6 c-24 -4 -48 -10 -54 -13
-6 -4 -13 -39 -17 -79 l-7 -71 58 -12 c86 -17 83 -14 83 -74 0 -66 -11 -80
-80 -96 l-50 -12 0 -74 c0 -58 3 -74 15 -74 7 0 36 -5 63 -11 l49 -10 12 -56
c6 -30 9 -59 6 -63 -3 -5 -26 -20 -53 -36 -26 -15 -48 -28 -50 -29 -7 -6 63
-135 73 -135 6 0 35 7 64 16 29 8 54 14 55 12 1 -2 15 -24 29 -50 l28 -47 -37
-56 -37 -56 48 -49 c27 -28 53 -50 58 -50 5 0 31 16 58 36 l49 36 46 -29 c50
-31 47 -20 28 -135 -6 -35 -5 -36 42 -57 87 -39 88 -39 124 23 l31 56 42 -6
c23 -3 47 -7 53 -9 6 -2 17 -33 25 -69 l13 -66 72 0 72 0 12 69 11 69 56 11
c31 6 57 10 58 8 1 -1 15 -24 30 -52 16 -27 30 -51 31 -53 1 -2 31 10 67 27
l66 29 -19 66 -19 66 46 32 c25 18 49 32 54 31 4 -2 28 -17 54 -35 l45 -32 41
40 c63 60 66 71 32 108 -58 63 -58 60 -22 113 18 26 33 49 35 51 2 3 53 -9
105 -24 13 -4 22 10 38 58 12 34 21 67 21 74 0 7 -22 26 -49 42 l-48 30 10 54
c5 29 13 57 17 61 5 5 32 12 61 16 l54 6 -3 40 c-1 22 -5 59 -8 81 -5 41 -5
41 -57 50 l-52 9 -17 63 -17 62 52 26 c29 15 54 28 56 30 4 3 -48 154 -53 154
-1 0 -27 -7 -56 -16 l-54 -16 -38 43 c-20 24 -38 50 -38 57 0 7 16 34 35 59
l35 46 -38 41 c-71 80 -72 80 -125 35 l-46 -40 -51 32 c-49 30 -52 34 -45 63
21 99 21 99 -33 129 -27 15 -54 27 -58 27 -5 0 -25 -27 -43 -60 -19 -33 -40
-60 -45 -60 -6 0 -31 6 -56 14 -45 13 -45 14 -60 77 -15 61 -17 64 -48 67
l-32 3 0 -58 c0 -105 13 -225 24 -228 6 -1 40 -8 76 -14 36 -7 107 -32 158
-57 330 -159 456 -572 276 -903 -49 -88 -83 -132 -119 -147 -16 -7 -24 -13
-16 -14 10 0 5 -10 -14 -30 -37 -39 -45 -38 -45 6 0 32 2 35 23 29 18 -5 19
-4 5 5 -31 19 -46 3 -38 -41 6 -34 5 -42 -14 -54 -43 -28 -156 -64 -239 -76
-73 -11 -96 -10 -172 5 -89 17 -179 56 -227 98 -23 20 -28 32 -28 71 l0 48
205 -3 c132 -2 205 1 205 7 0 6 -73 9 -205 7 l-205 -3 -3 178 -2 178 -3 -177
-2 -178 -47 0 c-46 0 -49 2 -80 48 -47 71 -70 122 -98 217 -25 86 -25 93 -25
436 l0 349 80 0 c44 0 80 4 80 8 0 8 -305 302 -313 302 -2 0 -70 -69 -150
-154z m353 -140 l-70 -9 6 -376 7 -376 33 -93 c82 -233 258 -406 459 -452 63
-15 195 -15 258 -1 95 22 185 64 244 114 169 144 252 324 253 543 0 186 -62
337 -195 469 -94 95 -185 145 -321 180 l-89 22 -3 126 c-2 80 1 127 7 127 14
0 26 -26 40 -86 l12 -51 65 -18 c36 -10 66 -16 68 -14 1 2 17 30 35 62 18 31
35 57 38 57 4 0 25 -11 49 -25 l42 -25 -15 -60 c-9 -33 -14 -62 -12 -64 2 -2
31 -20 63 -39 l59 -36 47 39 47 39 47 -48 47 -47 -36 -47 c-19 -25 -35 -51
-35 -57 0 -8 78 -120 84 -120 0 0 26 7 56 15 30 8 56 15 57 15 1 0 9 -24 19
-52 9 -29 19 -58 21 -65 3 -7 -18 -21 -47 -34 l-52 -22 5 -41 c3 -23 12 -59
19 -81 12 -38 15 -40 63 -45 l50 -5 6 -65 c4 -36 5 -67 3 -69 -2 -2 -26 -6
-54 -9 -59 -5 -66 -14 -75 -98 l-7 -60 50 -27 51 -27 -21 -60 c-11 -33 -21
-60 -21 -60 -1 0 -27 7 -57 15 -30 8 -56 15 -57 15 -1 0 -21 -27 -43 -61 -46
-67 -47 -59 14 -134 l25 -31 -38 -44 -38 -45 -53 37 -53 37 -53 -37 c-59 -41
-62 -51 -40 -126 l14 -47 -50 -25 c-27 -14 -51 -24 -53 -22 -1 2 -17 27 -35
56 -22 37 -37 51 -49 48 -9 -2 -39 -10 -68 -16 l-52 -12 -6 -63 -7 -63 -37 -6
c-56 -9 -81 -7 -86 7 -2 6 -9 38 -15 69 -12 61 -6 57 -102 73 -37 6 -38 5 -63
-45 -14 -28 -31 -53 -38 -56 -7 -2 -35 5 -61 17 l-48 21 7 46 c3 26 9 56 11
68 4 17 -6 29 -45 58 -28 20 -54 36 -57 36 -4 0 -28 -16 -55 -36 l-49 -36 -45
37 c-25 20 -45 39 -45 43 0 4 16 31 36 60 l35 53 -36 59 c-39 64 -41 65 -113
39 -40 -15 -47 -11 -75 45 l-26 55 54 31 c30 17 55 35 55 38 0 6 -11 56 -25
119 -4 17 -15 22 -54 28 -69 9 -78 20 -73 82 l4 52 54 12 c30 7 56 15 58 18 2
3 7 40 10 82 l7 76 -70 13 -71 13 0 62 0 62 60 13 60 13 0 47 c0 91 -8 109
-54 121 -22 5 -49 12 -58 15 -9 3 -18 17 -20 32 -3 27 -4 27 -82 30 l-80 3
139 139 140 140 133 -133 133 -132 -71 -9z m200 -1123 l0 -47 -40 39 c-22 21
-40 43 -40 47 0 4 18 8 40 8 l40 0 0 -47z"/>
<path d="M1184 1686 c-7 -30 1 -46 24 -45 15 1 15 2 -1 6 -24 6 -19 49 6 47 9
-1 17 2 17 7 0 5 -9 9 -20 9 -12 0 -22 -9 -26 -24z"/>
<path d="M1241 1668 c-9 -24 -8 -34 1 -40 18 -11 28 -10 28 2 0 6 -3 9 -7 8
-8 -3 -14 7 -12 17 1 3 2 11 3 18 1 6 10 11 21 9 17 -2 17 -1 5 7 -23 16 -27
14 -39 -21z"/>
<path d="M1307 1673 c10 -7 9 -15 -2 -36 -7 -15 -10 -27 -6 -27 4 0 13 12 19
26 7 14 17 22 22 19 6 -3 10 -1 10 4 0 6 -4 11 -9 11 -5 0 -18 3 -28 6 -12 4
-14 3 -6 -3z"/>
<path d="M1352 1628 c-15 -42 -8 -47 11 -9 9 17 12 33 8 35 -4 3 -12 -9 -19
-26z"/>
<path d="M1387 1625 c-4 -8 -2 -17 3 -20 16 -10 11 -28 -5 -21 -8 3 -15 1 -15
-4 0 -6 9 -10 20 -10 21 0 28 24 10 35 -6 4 -8 11 -4 16 4 6 11 6 20 -2 8 -7
14 -7 14 -1 0 5 -7 13 -16 16 -21 8 -21 8 -27 -9z"/>
<path d="M1455 1558 l-18 -33 22 20 22 19 -7 -29 -7 -30 27 24 c27 26 37 53
11 31 -13 -10 -15 -9 -15 9 0 30 -13 26 -35 -11z"/>
<path d="M1500 1515 c-10 -12 -10 -19 -2 -27 15 -15 48 14 38 31 -10 15 -21
14 -36 -4z m28 -7 c-2 -6 -10 -14 -16 -16 -7 -2 -10 2 -6 12 7 18 28 22 22 4z"/>
<path d="M1603 1458 c-4 -7 -6 -21 -5 -30 2 -10 -2 -18 -7 -18 -6 0 -11 7 -11
16 0 8 -5 12 -11 8 -7 -4 -6 -11 4 -21 19 -19 40 -7 34 19 -4 14 -2 18 9 14
15 -6 20 9 5 19 -5 3 -13 0 -18 -7z"/>
<path d="M1615 1396 c-11 -8 -16 -19 -12 -30 8 -20 16 -20 46 3 39 30 6 57
-34 27z m45 -6 c0 -5 -4 -10 -9 -10 -6 0 -13 5 -16 10 -3 6 1 10 9 10 9 0 16
-4 16 -10z m-30 -14 c0 -3 -4 -8 -10 -11 -5 -3 -10 -1 -10 4 0 6 5 11 10 11 6
0 10 -2 10 -4z"/>
<path d="M360 1160 c0 -11 4 -20 10 -20 5 0 7 7 4 15 -5 11 1 15 21 15 20 0
26 -4 21 -15 -3 -8 -1 -15 4 -15 6 0 10 9 10 20 0 16 -7 20 -35 20 -28 0 -35
-4 -35 -20z"/>
<path d="M363 1114 c-8 -21 10 -36 38 -32 16 2 25 11 27 26 3 19 -1 22 -28 22
-19 0 -33 -6 -37 -16z m57 -10 c0 -10 -7 -14 -22 -12 -32 5 -35 28 -4 28 17 0
26 -5 26 -16z"/>
<path d="M1732 1082 c-39 -21 -32 -32 17 -31 20 1 28 3 19 6 -21 5 -23 14 -6
31 16 16 9 15 -30 -6z"/>
<path d="M379 1063 l25 -5 -25 -19 -24 -19 40 1 c31 0 35 2 20 9 -18 7 -19 8
-2 15 30 12 19 25 -20 24 -27 -1 -31 -3 -14 -6z"/>
<path d="M1743 1033 c-18 -2 -33 -8 -33 -12 0 -4 16 -5 35 -3 19 2 35 8 35 13
0 5 -1 8 -2 7 -2 0 -18 -3 -35 -5z"/>
<path d="M403 1003 c-7 -3 -13 -11 -13 -19 0 -9 -5 -12 -10 -9 -6 4 -8 11 -5
16 4 5 1 9 -5 9 -6 0 -10 -8 -8 -17 4 -22 38 -30 38 -9 0 8 8 16 18 18 9 2 13
6 7 9 -5 4 -16 4 -22 2z"/>
<path d="M1728 993 c7 -3 16 -2 19 1 4 3 -2 6 -13 5 -11 0 -14 -3 -6 -6z"/>
<path d="M1720 969 c0 -4 16 -7 35 -6 19 1 35 6 35 10 0 4 -16 7 -35 5 -19 -1
-35 -5 -35 -9z"/>
<path d="M421 943 c-1 -6 -16 -14 -33 -16 -32 -4 -32 -4 5 -5 23 -1 36 -6 32
-12 -3 -5 -1 -10 4 -10 13 0 13 7 1 35 -5 11 -9 15 -9 8z"/>
<path d="M1720 931 c0 -25 9 -30 43 -24 18 4 27 12 27 24 0 15 -7 19 -35 19
-28 0 -35 -4 -35 -19z m60 -1 c0 -5 -11 -10 -25 -10 -14 0 -25 5 -25 10 0 6
11 10 25 10 14 0 25 -4 25 -10z"/>
<path d="M383 879 c9 -5 21 -8 26 -4 5 3 12 1 16 -5 3 -5 -2 -10 -12 -10 -10
0 -25 -5 -33 -10 -11 -8 -7 -9 15 -5 28 6 29 5 11 -9 -10 -8 -23 -17 -28 -18
-5 -2 -6 -11 -3 -20 5 -13 14 -16 36 -11 37 7 38 -11 2 -32 -16 -9 -20 -14
-10 -11 10 3 22 6 27 6 11 0 23 37 15 50 -3 6 -15 6 -30 0 -15 -6 -27 -6 -30
1 -4 5 6 14 22 19 21 8 28 17 30 40 2 28 0 30 -35 30 -30 -1 -34 -3 -19 -11z"/>
<path d="M1720 846 c0 -41 2 -44 32 -50 41 -8 49 0 9 9 -17 4 -31 11 -31 16 0
6 5 7 10 4 6 -3 10 -2 10 4 0 5 -6 12 -12 15 -7 3 2 5 20 3 17 -2 32 0 32 5 0
4 -7 8 -15 8 -21 0 -19 18 3 23 9 3 0 5 -20 6 l-38 1 0 -44z m30 24 c0 -5 -4
-10 -10 -10 -5 0 -10 5 -10 10 0 6 5 10 10 10 6 0 10 -4 10 -10z"/>
<path d="M1705 729 c4 -6 13 -8 21 -5 8 3 13 0 11 -6 -1 -6 4 -13 11 -15 7 -3
10 1 6 10 -3 10 1 17 13 20 10 3 -1 5 -25 6 -28 1 -41 -3 -37 -10z"/>
<path d="M415 710 c-18 -8 -19 -9 -1 -9 12 -1 16 -6 12 -16 -8 -22 3 -45 20
-38 8 3 14 -1 14 -8 0 -8 6 -5 15 7 21 28 18 35 -10 22 -30 -13 -48 -1 -21 14
15 8 16 12 5 20 -10 7 -7 7 9 3 13 -4 22 -2 22 4 0 13 -36 13 -65 1z"/>
<path d="M1700 692 c25 -16 60 -24 60 -14 0 5 -6 9 -12 9 -7 0 -24 3 -38 7
-17 5 -20 4 -10 -2z"/>
<path d="M1680 651 c0 -11 -4 -23 -10 -26 -17 -10 -11 -43 9 -50 13 -4 17 -12
14 -26 -5 -18 -7 -19 -29 -4 -26 17 -38 19 -30 6 3 -5 -1 -11 -9 -15 -22 -8
-18 -33 7 -51 21 -14 24 -14 36 2 11 15 9 20 -10 35 -25 19 -18 24 13 8 15 -9
21 -7 26 7 3 10 13 26 21 35 11 14 12 21 3 32 -9 11 -7 15 10 19 12 3 19 12
17 19 -6 16 -38 24 -38 9 0 -6 7 -8 15 -5 8 4 15 1 15 -6 0 -6 -10 -10 -22 -8
-15 2 -22 9 -22 21 1 9 -2 17 -7 17 -5 0 -9 -9 -9 -19z m29 -50 c7 -5 10 -14
7 -20 -8 -13 -46 3 -46 19 0 12 20 13 39 1z m-59 -86 c7 -9 11 -18 8 -20 -9
-10 -38 7 -38 21 0 18 14 18 30 -1z"/>
<path d="M471 620 c-13 -11 -21 -20 -18 -20 14 0 57 24 57 32 0 13 -13 9 -39
-12z"/>
<path d="M483 595 c-29 -20 -20 -49 13 -41 21 6 24 3 24 -21 -1 -27 -1 -27
-15 -9 -8 11 -15 15 -15 10 0 -6 5 -15 12 -22 15 -15 39 3 31 24 -3 8 -1 14 5
14 6 0 13 -6 15 -12 4 -8 6 -9 6 -2 1 6 -6 17 -14 24 -8 7 -15 21 -15 31 0 23
-18 24 -47 4z m39 -13 c4 -14 0 -18 -21 -16 -37 2 -38 3 -17 19 26 19 33 19
38 -3z"/>
<path d="M563 481 c-13 -11 -23 -22 -23 -26 0 -4 7 -1 17 6 15 13 16 11 9 -14
l-7 -28 31 22 c16 13 28 25 25 27 -2 3 -12 -1 -20 -8 -14 -12 -15 -10 -10 13
8 32 7 32 -22 8z"/>
<path d="M1590 494 c0 -6 6 -16 13 -23 10 -11 8 -12 -11 -6 -16 5 -30 1 -43
-11 -23 -21 -24 -37 -4 -54 12 -10 12 -14 0 -26 -18 -18 -29 -18 -21 1 3 9 0
15 -9 15 -8 0 -15 5 -15 10 0 6 5 10 12 10 6 0 9 2 6 5 -7 7 -77 -37 -78 -48
0 -5 4 -5 10 -2 5 3 15 -5 22 -19 6 -14 16 -26 21 -26 5 0 2 12 -8 26 -14 21
-15 28 -4 35 9 5 19 0 29 -16 l15 -23 33 29 c17 16 32 34 32 41 0 9 -3 9 -9
-1 -8 -12 -12 -12 -25 -2 -21 17 -20 27 1 36 12 4 24 -1 35 -15 10 -12 18 -17
18 -12 0 6 -6 14 -12 19 -9 5 -3 9 15 13 l29 5 -26 24 c-14 14 -26 20 -26 15z"/>
<path d="M603 428 c-21 -24 -21 -48 2 -48 7 0 18 7 25 15 7 8 17 15 23 15 6 0
1 -10 -11 -23 -17 -18 -19 -26 -10 -35 7 -7 17 -12 22 -12 6 0 5 4 -3 9 -11 7
-10 12 5 29 13 16 20 18 26 9 6 -9 8 -9 8 1 0 7 -12 18 -26 24 -22 10 -27 9
-35 -5 -6 -9 -14 -17 -19 -17 -15 0 -12 22 7 42 9 10 14 18 11 18 -2 0 -14
-10 -25 -22z"/>
<path d="M696 338 c6 -29 5 -31 -10 -19 -9 7 -16 9 -16 3 0 -15 26 -22 39 -9
8 8 7 14 -1 24 -6 7 -7 17 -3 21 4 4 10 1 12 -5 3 -7 11 -13 19 -13 19 0 18
-19 -3 -42 -9 -10 -12 -18 -6 -18 5 0 16 11 23 25 10 18 16 22 22 13 5 -9 8
-9 8 -1 0 13 -60 53 -79 53 -9 0 -10 -10 -5 -32z"/>
<path d="M1404 325 c2 -16 8 -31 15 -33 15 -5 14 7 -4 38 l-14 25 3 -30z"/>
<path d="M1341 323 c-20 -4 -22 -9 -17 -36 8 -38 11 -41 32 -33 12 5 15 14 10
36 -7 37 -1 38 18 3 l15 -28 -3 30 c-3 31 -13 36 -55 28z m14 -34 c4 -11 4
-23 0 -27 -7 -7 -25 17 -25 36 0 20 18 14 25 -9z"/>
<path d="M782 288 c-14 -39 -10 -47 8 -13 7 14 18 25 24 25 6 0 5 -5 -2 -12
-7 -7 -12 -21 -12 -32 1 -18 3 -17 16 7 12 22 13 31 3 43 -17 21 -23 18 -37
-18z"/>
<path d="M1280 300 c-11 -7 -12 -15 -4 -37 10 -30 35 -38 41 -13 4 13 3 13 -6
0 -10 -13 -12 -13 -21 0 -15 23 -12 38 8 42 10 2 13 6 7 10 -6 4 -17 3 -25 -2z"/>
<path d="M836 274 c-11 -28 -6 -54 9 -54 16 0 35 30 35 54 0 21 -36 21 -44 0z
m34 -3 c0 -17 -12 -41 -21 -41 -10 0 -12 33 -2 43 9 10 23 9 23 -2z"/>
<path d="M1190 261 c0 -33 11 -51 31 -51 20 0 23 10 13 48 -8 28 -44 30 -44 3z
m35 -12 c8 -23 1 -34 -14 -24 -13 8 -15 45 -2 45 5 0 13 -9 16 -21z"/>
<path d="M915 239 c-4 -17 -4 -33 -1 -36 3 -4 6 1 6 10 0 10 4 17 10 17 5 0 7
7 3 16 -4 12 0 14 23 9 22 -5 25 -4 14 4 -28 20 -48 12 -55 -20z"/>
<path d="M1123 263 c-7 -2 -13 -18 -13 -34 0 -16 -4 -29 -10 -29 -5 0 -10 14
-10 30 0 28 -3 30 -35 30 -19 0 -35 -5 -35 -11 0 -5 5 -7 11 -3 8 5 10 -3 7
-25 -2 -17 -1 -31 4 -31 4 0 8 13 8 30 0 36 23 36 30 0 3 -14 13 -26 23 -28
13 -3 17 3 17 27 0 38 20 41 21 4 1 -17 3 -21 6 -10 5 21 23 23 23 2 0 -8 5
-15 10 -15 7 0 6 8 -1 23 -7 12 -12 23 -11 25 13 18 -15 28 -45 15z m42 -13
c3 -5 1 -10 -4 -10 -6 0 -11 5 -11 10 0 6 2 10 4 10 3 0 8 -4 11 -10z"/>
<path d="M995 231 c-7 -34 -21 -41 -28 -13 -3 13 -4 12 -3 -3 2 -34 33 -30 41
5 4 17 5 34 2 36 -3 3 -8 -8 -12 -25z"/>
<path d="M1470 1879 c-6 -11 -10 -25 -8 -30 2 -5 8 4 15 21 13 34 9 40 -7 9z"/>
<path d="M1380 1882 c0 -16 33 -24 41 -10 4 7 5 15 2 18 -3 3 -8 -1 -10 -8 -4
-10 -8 -10 -19 -1 -8 7 -14 7 -14 1z"/>
<path d="M1436 1875 c-9 -26 -7 -32 5 -12 6 10 9 21 6 23 -2 3 -7 -2 -11 -11z"/>
<path d="M1522 1868 c-7 -7 -12 -16 -12 -22 0 -5 6 -1 14 10 8 10 18 15 22 11
11 -11 -11 -43 -28 -39 -11 3 -11 1 0 -10 11 -11 16 -10 28 7 25 33 4 71 -24
43z"/>
<path d="M1574 1824 c6 -22 4 -25 -9 -20 -9 3 -13 2 -10 -4 3 -6 13 -10 22
-10 11 0 14 6 9 26 -6 22 -4 25 9 20 9 -3 13 -2 10 4 -3 6 -13 10 -22 10 -11
0 -14 -6 -9 -26z"/>
<path d="M1643 1798 c-20 -26 -26 -41 -15 -34 12 7 36 46 29 46 -3 0 -9 -6
-14 -12z"/>
<path d="M1656 1762 c-11 -15 -13 -21 -6 -14 20 18 29 15 23 -8 -7 -27 -1 -25
26 7 17 18 19 24 7 20 -10 -4 -16 -1 -16 8 0 22 -13 18 -34 -13z"/>
<path d="M1711 1731 c-20 -28 -21 -32 -6 -37 10 -4 25 2 38 15 20 19 20 22 5
37 -14 14 -17 13 -37 -15z m25 -19 c-8 -9 -19 -13 -22 -9 -10 9 16 38 28 31 6
-4 4 -13 -6 -22z"/>
<path d="M1755 1700 c-17 -19 -15 -50 3 -50 5 0 17 9 27 20 22 24 9 27 -17 3
-24 -21 -25 3 -1 29 9 10 14 18 11 18 -3 0 -13 -9 -23 -20z"/>
<path d="M1799 1663 c-1 -4 -1 -16 0 -25 2 -19 -14 -25 -22 -8 -3 6 -4 5 -3
-2 5 -23 31 -14 34 11 3 19 6 21 14 10 8 -12 9 -12 6 0 -5 16 -27 27 -29 14z"/>
<path d="M1845 1620 c3 -5 -3 -15 -15 -22 -11 -7 -20 -17 -20 -22 0 -5 9 -1
19 8 11 10 25 15 30 11 13 -7 14 -3 5 19 -3 9 -10 16 -16 16 -5 0 -6 -4 -3
-10z"/>
<path d="M1854 1558 c-16 -11 -21 -18 -12 -14 10 3 20 1 23 -4 4 -6 1 -10 -4
-10 -6 0 -11 -5 -11 -11 0 -8 5 -7 15 1 9 7 14 19 11 27 -3 7 -1 13 3 13 5 0
12 -6 14 -12 3 -8 6 -7 6 4 1 27 -13 29 -45 6z"/>
<path d="M1880 1510 c-14 -11 -20 -20 -15 -20 6 0 21 9 35 20 14 11 21 20 15
20 -5 0 -21 -9 -35 -20z"/>
<path d="M1122 1488 c-18 -18 -15 -36 7 -48 28 -14 55 13 41 41 -12 22 -30 25
-48 7z"/>
<path d="M1895 1480 c-16 -4 -22 -8 -12 -9 13 -1 17 -7 13 -18 -3 -10 2 -29
10 -43 9 -14 13 -17 10 -8 -4 13 2 20 19 24 14 3 25 10 25 15 0 5 -11 3 -25
-3 -33 -15 -45 -2 -17 18 12 8 22 19 22 25 0 10 -2 10 -45 -1z"/>
<path d="M643 1433 l27 -4 0 -229 0 -229 -82 -3 c-46 -2 59 -6 232 -8 305 -5
316 -4 360 16 l45 22 -83 3 c-73 4 -82 2 -82 -13 0 -12 -8 -18 -25 -18 -23 0
-24 3 -28 78 l-3 77 -2 -77 c-2 -70 -4 -78 -22 -78 -18 0 -20 8 -23 103 l-3
102 -2 -102 c-2 -102 -2 -103 -27 -103 l-25 0 -2 178 -3 177 -49 3 c-27 2 -53
-1 -57 -5 -5 -5 4 -9 19 -8 l27 0 3 -172 2 -173 -24 0 -25 0 -4 133 -3 132 -2
-132 -2 -133 -25 0 -24 0 -4 133 -3 132 -2 -132 c-2 -126 -3 -133 -22 -133
-19 0 -20 7 -20 235 l0 235 -32 -1 c-31 -2 -31 -2 -5 -6z m247 -288 c0 -168
-1 -175 -20 -175 -19 0 -20 7 -20 175 0 168 1 175 20 175 19 0 20 -7 20 -175z"/>
<path d="M1402 1431 c-10 -6 -14 -81 -5 -81 10 0 53 46 53 56 0 18 -33 35 -48
25z"/>
<path d="M1177 1386 c-5 -12 0 -16 21 -15 16 0 21 3 12 6 -8 3 -18 10 -21 15
-3 5 -9 3 -12 -6z"/>
<path d="M1295 1379 c7 -10 55 -18 55 -9 0 4 -13 10 -29 12 -17 2 -28 1 -26
-3z"/>
<path d="M1232 1344 c-41 -29 -19 -114 30 -114 23 0 51 36 51 67 0 16 -10 34
-23 45 -27 22 -30 22 -58 2z"/>
<path d="M1950 1345 c-14 -8 -20 -14 -14 -15 5 0 19 7 30 15 24 18 16 19 -16
0z"/>
<path d="M1044 1336 c-10 -26 4 -48 28 -44 17 2 23 10 23 28 0 18 -6 26 -23
28 -13 2 -25 -3 -28 -12z"/>
<path d="M1173 1295 c0 -33 2 -45 4 -27 2 18 2 45 0 60 -2 15 -4 0 -4 -33z"/>
<path d="M1348 1298 c-2 -21 -1 -38 3 -38 11 0 16 34 9 55 -6 16 -8 12 -12
-17z"/>
<path d="M1977 1278 c-36 -13 -33 -44 3 -40 32 3 44 16 34 35 -7 11 -16 12
-37 5z m33 -17 c0 -9 -41 -23 -48 -16 -2 2 -1 8 3 14 8 13 45 15 45 2z"/>
<path d="M1395 1220 c3 -5 8 -10 11 -10 2 0 4 5 4 10 0 6 -5 10 -11 10 -5 0
-7 -4 -4 -10z"/>
<path d="M1988 1223 c-16 -2 -28 -8 -28 -13 0 -5 7 -7 15 -4 9 4 15 1 15 -7 0
-8 6 -5 16 7 13 16 15 16 10 2 -3 -10 -1 -18 4 -18 6 0 10 9 10 20 0 11 -3 19
-7 19 -5 -1 -20 -4 -35 -6z"/>
<path d="M1340 1210 c0 -5 7 -7 15 -4 8 4 15 8 15 10 0 2 -7 4 -15 4 -8 0 -15
-4 -15 -10z"/>
<path d="M1180 1202 c0 -5 14 -7 30 -4 17 2 30 6 30 8 0 2 -13 4 -30 4 -16 0
-30 -4 -30 -8z"/>
<path d="M1293 1203 c9 -2 23 -2 30 0 6 3 -1 5 -18 5 -16 0 -22 -2 -12 -5z"/>
<path d="M1412 1165 c0 -16 2 -22 5 -12 2 9 2 23 0 30 -3 6 -5 -1 -5 -18z"/>
<path d="M1195 1140 c-3 -5 -2 -10 4 -10 5 0 13 5 16 10 3 6 2 10 -4 10 -5 0
-13 -4 -16 -10z"/>
<path d="M2013 1143 c-7 -3 -13 -11 -13 -19 0 -9 -4 -12 -10 -9 -5 3 -10 1
-10 -4 0 -15 18 -14 27 3 4 7 15 15 23 18 7 2 10 7 5 10 -6 3 -16 3 -22 1z"/>
<path d="M1304 1131 c3 -5 -1 -11 -9 -15 -8 -3 -15 -12 -15 -21 0 -8 -8 -15
-17 -16 -20 -1 21 -16 48 -18 32 -2 33 61 2 73 -7 3 -12 2 -9 -3z"/>
<path d="M2008 1092 c-16 -2 -28 -7 -28 -11 0 -9 48 -6 58 3 9 9 -1 12 -30 8z"/>
<path d="M2003 1033 c20 -5 22 -19 5 -26 -7 -3 -1 -6 15 -6 21 -1 27 4 27 19
0 16 -6 20 -32 19 -18 -1 -25 -3 -15 -6z"/>
<path d="M1268 1003 c7 -3 16 -2 19 1 4 3 -2 6 -13 5 -11 0 -14 -3 -6 -6z"/>
<path d="M1510 980 c9 -17 21 -20 75 -20 58 0 65 2 65 20 0 18 -7 20 -75 20
-73 0 -75 -1 -65 -20z"/>
<path d="M2018 978 c-34 -12 -37 -28 -5 -28 18 0 19 2 7 10 -12 8 -11 10 8 10
12 0 22 5 22 10 0 6 -1 10 -2 9 -2 0 -15 -5 -30 -11z"/>
<path d="M1289 963 c-13 -16 -12 -17 4 -4 16 13 21 21 13 21 -2 0 -10 -8 -17
-17z"/>
<path d="M1370 962 c0 -7 -9 -21 -20 -32 -11 -11 -16 -20 -11 -20 6 0 12 -17
14 -37 l4 -38 1 43 c1 24 7 52 13 64 6 11 8 22 5 26 -3 3 -6 0 -6 -6z"/>
<path d="M1068 923 c7 -3 16 -2 19 1 4 3 -2 6 -13 5 -11 0 -14 -3 -6 -6z"/>
<path d="M1170 919 l-75 -5 68 -2 67 -2 1 -42 2 -43 7 50 c4 28 7 50 6 50 -1
0 -35 -3 -76 -6z"/>
<path d="M2030 926 c0 -2 7 -6 15 -10 8 -3 15 -1 15 4 0 6 -7 10 -15 10 -8 0
-15 -2 -15 -4z"/>
<path d="M1410 909 l-45 -6 43 -1 c26 -1 42 -7 42 -14 0 -10 2 -10 8 -1 4 6
30 13 57 15 l50 3 -55 5 c-30 3 -75 2 -100 -1z"/>
<path d="M1283 903 c9 -2 23 -2 30 0 6 3 -1 5 -18 5 -16 0 -22 -2 -12 -5z"/>
<path d="M2020 893 c14 -3 28 -10 32 -17 5 -7 8 -5 8 7 0 13 -8 17 -32 16 -28
-2 -29 -2 -8 -6z"/>
<path d="M1542 850 c0 -14 2 -19 5 -12 2 6 2 18 0 25 -3 6 -5 1 -5 -13z"/>
<path d="M1152 840 c0 -14 2 -19 5 -12 2 6 2 18 0 25 -3 6 -5 1 -5 -13z"/>
<path d="M2000 842 c0 -5 14 -7 30 -4 17 2 30 6 30 8 0 2 -13 4 -30 4 -16 0
-30 -4 -30 -8z"/>
<path d="M2000 800 c0 -16 7 -20 30 -20 17 0 30 4 30 9 0 4 -11 6 -25 3 -14
-2 -25 0 -25 6 0 6 12 13 28 15 25 4 25 4 -5 6 -27 1 -33 -3 -33 -19z"/>
<path d="M1442 785 c0 -16 2 -22 5 -12 2 9 2 23 0 30 -3 6 -5 -1 -5 -18z"/>
<path d="M1531 794 c0 -11 3 -14 6 -6 3 7 2 16 -1 19 -3 4 -6 -2 -5 -13z"/>
<path d="M1343 745 c0 -33 2 -45 4 -27 2 18 2 45 0 60 -2 15 -4 0 -4 -33z"/>
<path d="M920 770 c0 -5 5 -10 11 -10 5 0 7 5 4 10 -3 6 -8 10 -11 10 -2 0 -4
-4 -4 -10z"/>
<path d="M1244 690 c0 -52 1 -74 3 -47 2 26 2 68 0 95 -2 26 -3 4 -3 -48z"/>
<path d="M1028 763 c7 -3 16 -2 19 1 4 3 -2 6 -13 5 -11 0 -14 -3 -6 -6z"/>
<path d="M2000 750 c0 -24 28 -27 37 -3 6 15 7 15 14 -3 7 -17 8 -17 8 4 1 13
-5 22 -14 22 -8 0 -15 -7 -15 -15 0 -8 -5 -15 -11 -15 -6 0 -9 7 -5 15 3 8 1
15 -4 15 -6 0 -10 -9 -10 -20z"/>
<path d="M1162 710 c0 -19 2 -27 5 -17 2 9 2 25 0 35 -3 9 -5 1 -5 -18z"/>
<path d="M1433 660 c0 -25 2 -35 4 -22 2 12 2 32 0 45 -2 12 -4 2 -4 -23z"/>
<path d="M2040 680 c-8 -5 -11 -12 -7 -16 4 -4 13 -2 19 4 15 15 7 24 -12 12z"/>
<path d="M2005 650 c-4 -6 7 -10 27 -9 27 0 30 2 13 9 -27 12 -33 12 -40 0z"/>
<path d="M1173 605 c0 -27 2 -38 4 -22 2 15 2 37 0 50 -2 12 -4 0 -4 -28z"/>
<path d="M2008 623 c7 -3 16 -2 19 1 4 3 -2 6 -13 5 -11 0 -14 -3 -6 -6z"/>
<path d="M1111 594 c0 -11 3 -14 6 -6 3 7 2 16 -1 19 -3 4 -6 -2 -5 -13z"/>
<path d="M2008 603 c6 -2 18 -2 25 0 6 3 1 5 -13 5 -14 0 -19 -2 -12 -5z"/>
<path d="M1423 545 c0 -27 2 -38 4 -22 2 15 2 37 0 50 -2 12 -4 0 -4 -28z"/>
<path d="M1180 516 c0 -14 4 -27 8 -30 5 -3 6 8 4 25 -5 35 -12 38 -12 5z"/>
<path d="M1995 530 c-3 -5 -3 -14 0 -20 10 -15 35 -12 42 6 5 13 7 13 14 2 7
-10 9 -9 9 5 0 9 -7 17 -15 17 -8 0 -15 -7 -15 -15 0 -8 -7 -15 -16 -15 -10 0
-14 6 -10 15 6 17 0 20 -9 5z"/>
<path d="M1252 505 c0 -16 2 -22 5 -12 2 9 2 23 0 30 -3 6 -5 -1 -5 -18z"/>
<path d="M1148 483 c7 -3 16 -2 19 1 4 3 -2 6 -13 5 -11 0 -14 -3 -6 -6z"/>
<path d="M1995 480 c-4 -7 -3 -16 3 -22 14 -14 57 -6 57 12 0 18 -50 26 -60
10z m25 -10 c0 -5 -4 -10 -10 -10 -5 0 -10 5 -10 10 0 6 5 10 10 10 6 0 10 -4
10 -10z m30 0 c0 -5 -5 -10 -11 -10 -5 0 -7 5 -4 10 3 6 8 10 11 10 2 0 4 -4
4 -10z"/>
<path d="M1283 473 c9 -2 23 -2 30 0 6 3 -1 5 -18 5 -16 0 -22 -2 -12 -5z"/>
<path d="M920 420 c0 -5 5 -10 11 -10 5 0 7 5 4 10 -3 6 -8 10 -11 10 -2 0 -4
-4 -4 -10z"/>
<path d="M1220 420 c0 -5 5 -10 11 -10 5 0 7 5 4 10 -3 6 -8 10 -11 10 -2 0
-4 -4 -4 -10z"/>
<path d="M1315 420 c-3 -5 -1 -10 4 -10 6 0 11 5 11 10 0 6 -2 10 -4 10 -3 0
-8 -4 -11 -10z"/>
</g>
</svg>
