<?xml version="1.0" standalone="no"?>
<!DOCTYPE svg PUBLIC "-//W3C//DTD SVG 20010904//EN"
 "http://www.w3.org/TR/2001/REC-SVG-20010904/DTD/svg10.dtd">
<svg version="1.0" xmlns="http://www.w3.org/2000/svg"
 width="5000.000000pt" height="4000.000000pt" viewBox="0 0 5000.000000 4000.000000"
 preserveAspectRatio="xMidYMid meet">

<g transform="translate(0.000000,4000.000000) scale(0.100000,-0.100000)"
fill="#000000" stroke="none">
<path d="M24940 32992 c-1134 -806 -2516 -1988 -3743 -3202 -3472 -3433 -5852
-7193 -6907 -10910 -418 -1472 -642 -3010 -639 -4380 l0 -305 54 248 c311
1427 857 3177 1482 4752 942 2370 2096 4520 3436 6400 176 247 555 755 564
755 3 0 -1 -10 -9 -22 -118 -180 -540 -890 -803 -1347 -2044 -3567 -3496
-6989 -4094 -9646 -133 -593 -264 -1371 -265 -1585 -1 -75 3 -93 31 -152 38
-81 102 -146 181 -185 51 -25 67 -28 159 -28 l102 0 223 112 c994 498 1862
1108 2361 1658 210 233 352 447 489 740 513 1095 2756 6245 6215 14275 972
2256 1233 2864 1230 2866 -1 1 -31 -18 -67 -44z"/>
<path d="M12940 12291 l-325 -1076 1 -140 c0 -118 4 -149 22 -198 50 -135 191
-274 302 -298 132 -28 306 4 436 82 53 31 60 41 97 119 77 166 401 835 745
1540 192 393 349 716 348 717 -1 2 -34 -11 -73 -27 -128 -54 -232 -74 -383
-74 -149 0 -219 13 -349 65 -151 60 -285 152 -416 284 l-80 81 -325 -1075z"/>
<path d="M12466 10889 c-3 -8 -82 -271 -176 -586 l-170 -571 2 -545 3 -545
355 419 355 420 266 502 c147 276 266 503 264 505 -1 1 -35 -13 -76 -33 -161
-76 -313 -94 -445 -51 -20 6 -32 -18 -169 -325 -145 -327 -146 -331 -126 -346
28 -19 61 -85 61 -122 0 -72 -54 -141 -126 -161 -38 -11 -51 -10 -89 4 -98 38
-138 134 -94 223 25 49 82 92 124 93 17 0 38 50 147 359 l128 359 -41 43 c-60
65 -118 168 -155 277 -18 52 -36 89 -38 81z"/>
<path d="M23950 10691 c-24 -7 -24 -8 18 -29 23 -13 42 -25 42 -27 0 -13 -59
-25 -138 -30 -176 -10 -314 -46 -462 -120 -95 -47 -146 -55 -108 -17 6 6 9 15
5 18 -4 4 -32 -15 -64 -42 -36 -31 -58 -44 -61 -36 -6 19 -42 -16 -42 -41 0
-32 -105 -124 -169 -147 -202 -75 -273 -116 -326 -188 -35 -47 -55 -53 -55
-16 0 37 -16 22 -85 -83 -64 -95 -104 -178 -129 -266 -12 -40 -34 -79 -71
-125 -58 -71 -67 -90 -35 -70 10 7 23 9 27 4 11 -10 22 -247 13 -265 -6 -10
-15 1 -30 37 -23 53 -73 101 -85 82 -3 -5 1 -10 9 -10 17 0 19 -12 10 -47 -4
-13 -11 -20 -16 -17 -6 4 -8 -10 -7 -36 3 -37 0 -45 -31 -71 -21 -17 -31 -32
-25 -36 6 -5 10 -72 10 -163 0 -90 6 -172 13 -195 15 -53 102 -157 185 -223
84 -67 235 -162 371 -232 58 -30 106 -58 106 -62 0 -4 -10 -8 -22 -10 -14 -2
-25 -14 -31 -33 -5 -16 -11 -36 -13 -44 -3 -10 -13 -6 -35 17 -17 17 -74 58
-128 91 -54 33 -121 81 -149 106 -29 26 -49 39 -46 30 4 -10 1 -20 -6 -25 -15
-9 110 -101 211 -155 52 -27 68 -41 72 -62 4 -18 25 -43 60 -70 50 -39 55 -41
60 -23 3 11 12 20 21 20 9 0 80 -24 159 -54 78 -29 157 -57 175 -61 18 -4 31
-12 29 -18 -7 -22 -65 -18 -127 6 -62 26 -67 12 -6 -17 25 -12 65 -16 152 -16
95 0 126 -4 158 -19 23 -11 75 -30 116 -42 41 -13 85 -33 97 -46 55 -54 539
-119 703 -95 36 6 74 14 85 18 17 7 16 3 -8 -39 l-27 -46 52 22 c29 12 133 61
232 110 98 48 180 86 181 85 20 -22 -146 -158 -170 -138 -7 6 -38 -18 -99 -77
-49 -48 -109 -104 -134 -125 -42 -35 -47 -36 -63 -22 -16 15 -22 15 -61 1 -61
-22 -119 -34 -318 -62 -96 -14 -209 -32 -250 -39 -159 -29 -391 -28 -630 3
-205 27 -304 25 -367 -7 -34 -18 -60 -22 -135 -23 l-93 0 48 -15 c26 -8 47
-18 47 -23 0 -4 -18 -13 -41 -20 -26 -8 -39 -17 -36 -25 6 -16 -42 -7 -119 21
-60 23 -73 49 -20 40 26 -4 36 -2 36 8 0 16 -54 34 -205 70 -60 14 -116 32
-125 40 -8 8 -58 23 -110 35 -298 66 -535 134 -1121 321 -223 71 -409 129
-414 129 -4 0 0 -12 10 -26 9 -14 15 -28 13 -30 -5 -5 -156 47 -183 63 -31 18
-9 27 40 16 24 -5 42 -7 40 -3 -9 14 -95 30 -164 30 -45 0 -83 6 -106 17 -54
26 -43 37 33 30 52 -4 61 -3 42 5 -14 6 -77 14 -140 18 -130 9 -220 35 -256
74 -13 14 -41 30 -62 35 -20 6 -84 26 -142 45 l-105 35 35 -29 c40 -35 38 -35
-42 -14 -33 8 -65 13 -71 11 -7 -2 -32 6 -57 18 -121 60 -772 272 -970 316
-69 15 -174 41 -234 58 -60 17 -111 31 -112 31 -2 0 -1 -7 2 -15 5 -11 -1 -15
-19 -15 -46 0 -87 12 -87 26 0 25 -61 52 -174 79 -61 15 -136 35 -166 45 -64
21 -398 40 -386 22 4 -6 -2 -8 -14 -5 -11 3 -20 11 -20 19 0 7 -16 16 -35 20
-51 9 -917 10 -1017 1 -68 -7 -86 -12 -81 -23 6 -17 2 -17 -143 -14 -93 2
-119 -1 -157 -18 -24 -11 -64 -23 -88 -27 -24 -4 -50 -11 -59 -15 -8 -4 -73
-18 -145 -30 -504 -86 -1186 -329 -1821 -651 -117 -59 -231 -121 -255 -138
-24 -18 -91 -60 -149 -95 -119 -71 -377 -240 -400 -262 -8 -8 49 24 126 70
601 359 1176 613 1724 762 76 20 79 22 60 35 -13 9 -12 10 2 5 20 -6 144 18
161 32 14 11 282 74 412 96 50 9 115 16 146 16 40 0 59 4 62 14 6 15 60 24
187 31 50 3 68 1 55 -5 l-20 -9 20 0 c32 -1 247 27 295 39 76 18 536 24 841
11 156 -7 295 -14 307 -17 16 -3 21 -1 17 6 -11 17 158 -6 297 -41 43 -10 156
-33 253 -49 97 -16 182 -36 190 -43 7 -8 27 -20 44 -27 17 -7 29 -16 26 -20
-8 -14 93 -32 220 -40 97 -5 127 -11 155 -28 21 -13 52 -22 77 -22 58 0 143
-21 143 -35 0 -7 7 -19 16 -26 15 -12 14 -14 -7 -19 -38 -9 128 -74 308 -121
172 -45 214 -60 261 -96 23 -17 39 -22 54 -17 l22 7 -22 17 c-12 10 -64 33
-117 51 -54 19 -95 40 -95 47 0 15 36 11 148 -19 105 -28 129 -39 219 -106
104 -77 262 -155 382 -188 52 -14 111 -35 131 -45 21 -11 40 -17 43 -14 3 4
39 -2 80 -12 43 -10 83 -14 93 -9 14 5 -6 15 -76 36 l-95 28 60 -6 c92 -8 235
-38 306 -64 l64 -24 -55 -5 -55 -6 45 -12 c25 -7 65 -20 90 -30 l45 -17 -35
-3 c-19 -2 -73 9 -120 23 -123 37 -270 75 -289 75 -32 -1 14 -19 100 -40 45
-10 87 -24 93 -30 5 -5 24 -10 41 -10 16 0 68 -14 115 -31 125 -45 210 -69
248 -69 26 0 33 -4 28 -15 -3 -10 2 -16 17 -19 12 -3 42 -9 67 -14 42 -9 43
-10 12 -11 -40 -1 -35 -16 9 -25 17 -3 69 -24 116 -46 95 -44 100 -46 84 -27
-8 10 -7 17 1 25 8 8 8 15 -1 26 -11 13 -5 13 50 0 89 -21 136 -44 220 -108
66 -50 123 -79 199 -100 20 -6 18 -3 -10 15 -64 42 -8 32 101 -17 145 -64 169
-73 209 -73 33 0 34 0 15 15 -11 8 -27 19 -35 24 -8 5 -12 12 -8 15 4 4 27 -3
52 -14 41 -20 54 -22 142 -15 96 7 97 7 92 -14 -5 -18 0 -23 30 -32 72 -21
136 -23 170 -6 36 19 71 19 127 2 l40 -12 -60 -16 c-53 -14 -56 -16 -25 -17
19 -1 52 -4 73 -7 36 -6 37 -8 21 -25 -17 -18 -15 -19 59 -19 42 0 124 -9 182
-20 l106 -21 18 23 c16 19 31 23 94 26 74 4 124 -9 112 -29 -4 -5 13 -9 39 -9
25 0 47 -4 50 -9 13 -20 -93 -29 -138 -11 -18 6 -34 6 -51 -2 -55 -25 -26 -35
144 -48 69 -5 127 -8 129 -5 3 3 -3 5 -13 5 -43 0 -1 9 133 29 134 21 183 20
151 0 -20 -12 8 -12 70 2 28 6 59 9 68 7 15 -3 13 -9 -14 -36 -37 -37 -38 -37
80 -15 77 14 100 14 151 4 34 -7 66 -17 72 -22 19 -15 167 19 323 75 80 29
178 61 216 71 39 10 81 27 95 37 14 9 89 39 167 66 177 61 274 116 378 214 65
62 98 84 156 108 40 16 77 36 81 44 5 8 15 22 23 30 8 8 15 21 15 29 0 16 64
77 81 77 23 0 41 -31 37 -65 -2 -19 -3 -35 -2 -35 0 0 47 20 103 44 88 39 101
42 101 26 0 -10 15 -31 33 -47 32 -28 33 -28 127 -22 52 4 118 8 145 9 47 2
48 3 15 9 -34 6 -32 7 30 20 68 14 87 22 210 89 70 38 170 72 213 72 16 0 17
-3 8 -14 -7 -8 -11 -32 -9 -53 3 -35 7 -39 45 -52 l41 -15 74 66 c108 96 201
164 281 205 110 55 146 66 178 52 23 -9 42 -6 108 14 44 14 78 21 75 16 -15
-25 -265 -183 -442 -279 l-122 -67 37 -7 c21 -3 67 -6 103 -6 74 0 72 -14 -7
-36 l-48 -14 55 5 c30 2 105 7 165 11 95 6 113 10 132 29 13 12 68 37 123 55
55 18 105 39 111 46 6 8 8 14 3 14 -5 0 -91 -23 -192 -51 -100 -29 -185 -49
-189 -45 -12 12 49 65 116 99 79 42 171 72 270 91 109 21 119 13 75 -62 -21
-36 -23 -44 -10 -39 22 9 160 43 205 51 40 7 35 0 -17 -26 l-37 -18 39 6 c22
3 83 22 135 42 106 40 175 46 336 28 l80 -8 -36 33 c-56 52 -83 113 -83 186
-1 34 4 66 9 72 12 11 364 -5 400 -19 34 -13 32 -26 -15 -76 -42 -46 -51 -78
-24 -88 23 -9 31 -7 15 3 -11 7 -7 14 20 30 41 25 52 26 69 6 15 -18 60 -12
98 13 13 8 47 21 75 28 49 11 50 12 17 14 -59 2 -4 17 110 30 112 12 133 18
124 32 -10 16 77 88 159 128 73 37 80 38 101 25 24 -16 121 -4 546 70 151 26
239 32 255 16 6 -6 20 -4 35 5 14 9 17 13 8 10 -24 -7 -23 5 2 37 71 89 514
261 532 206 8 -25 185 26 348 101 119 55 182 71 274 73 77 2 90 -7 74 -50 -13
-35 -38 -44 -176 -63 -40 -5 -80 -15 -90 -20 -9 -6 -37 -17 -62 -24 -94 -29 3
-14 313 49 177 36 365 72 417 81 96 15 200 49 200 65 0 9 -34 4 -79 -13 -45
-16 -44 8 0 26 24 10 48 23 53 30 23 28 321 116 393 116 17 0 35 -4 38 -10 13
-22 156 -2 191 26 17 14 14 15 -36 9 -34 -4 -51 -3 -45 3 18 17 177 73 290
102 l110 29 -70 -1 c-38 -1 -73 -6 -76 -11 -17 -25 -424 -96 -551 -97 -26 0
-49 -4 -53 -9 -3 -6 -26 -13 -50 -17 -54 -8 -69 -24 -23 -24 l33 -1 -25 -14
c-27 -14 -302 -95 -323 -95 -7 0 -6 4 3 10 25 16 -6 11 -57 -9 -41 -16 -57
-17 -107 -9 -57 10 -58 11 -35 24 l24 14 -25 -5 c-94 -17 -144 -24 -212 -30
-79 -6 -201 -34 -448 -104 -80 -22 -158 -41 -175 -41 -16 0 -124 -25 -240 -55
-115 -30 -211 -51 -212 -47 -2 4 -33 5 -70 4 -65 -4 -67 -4 -38 -16 29 -12 26
-13 -55 -24 -147 -19 -184 -22 -177 -16 4 4 28 13 54 20 41 11 44 13 17 13
-37 1 -134 -26 -134 -38 0 -9 -84 -33 -197 -56 -59 -12 -87 -14 -101 -6 -15 8
-66 4 -193 -15 -95 -14 -180 -29 -188 -34 -8 -4 -51 -6 -95 -3 -86 5 -135 -3
-483 -73 -161 -33 -193 -42 -193 -56 0 -10 -10 -20 -22 -22 -13 -3 -48 -10
-78 -16 -30 -5 -117 -24 -193 -42 -121 -28 -137 -34 -131 -50 4 -13 -2 -21
-19 -27 -49 -19 -235 -33 -482 -36 l-250 -3 -170 -42 c-147 -35 -193 -42 -340
-50 -93 -4 -190 -8 -215 -8 -25 0 -80 -5 -122 -12 -62 -10 -80 -11 -93 0 -24
20 -8 30 53 31 l57 1 -50 18 c-27 10 -65 19 -83 19 -32 1 -32 1 -16 -24 16
-25 16 -25 -15 -25 -31 0 -43 -21 -21 -35 18 -11 10 -20 -31 -33 -29 -9 -45
-10 -54 -2 -7 6 -57 10 -116 9 -57 0 -117 0 -134 2 -16 1 -86 -7 -155 -19 -68
-12 -126 -19 -128 -18 -12 13 135 386 152 386 7 0 -12 -64 -35 -118 -23 -54
-16 -48 35 28 30 46 36 51 36 30 0 -14 -11 -70 -24 -125 -14 -55 -22 -102 -20
-104 3 -3 16 6 30 20 21 22 24 29 14 50 -12 27 -5 66 53 289 52 200 60 326 22
364 -12 12 -13 20 -2 51 7 20 17 36 22 36 6 -1 11 21 13 48 3 42 -4 64 -37
133 -30 60 -44 105 -52 163 -11 81 -5 170 11 160 11 -7 -18 79 -49 145 -22 48
-28 85 -11 75 10 -6 -41 118 -79 192 -24 49 -26 57 -8 48 6 -4 -1 4 -17 16
-70 55 -166 143 -166 152 0 6 10 2 23 -8 12 -10 -11 14 -51 53 -40 40 -71 76
-67 82 11 17 60 -16 119 -82 l57 -62 -7 44 c-10 67 -27 92 -91 140 -32 24 -84
66 -116 94 -47 40 -65 50 -88 47 -24 -2 -39 6 -77 45 -74 74 -198 144 -256
144 -8 0 -16 6 -19 14 -10 26 -56 48 -134 67 -41 10 -77 20 -79 22 -3 2 0 16
5 31 10 26 10 26 -39 26 -28 0 -77 -10 -111 -21 -44 -15 -74 -20 -105 -15 -59
8 -137 42 -165 72 -23 24 -44 28 -89 15z m185 -411 c32 -17 78 -48 104 -69 25
-21 62 -48 81 -60 l35 -21 -35 -1 -35 0 45 -19 c61 -26 69 -25 81 10 12 32 37
45 70 35 18 -6 20 -12 14 -46 -6 -36 -4 -40 27 -59 18 -11 65 -30 103 -41 116
-35 190 -76 250 -141 30 -33 55 -52 55 -44 0 46 59 8 94 -62 13 -26 38 -96 56
-157 17 -60 45 -132 61 -158 33 -55 39 -85 9 -47 -11 14 -20 20 -20 13 0 -7 9
-21 20 -31 22 -21 49 -92 86 -232 14 -52 30 -107 36 -122 8 -22 6 -32 -11 -57
-24 -33 -33 -95 -50 -331 -10 -136 -27 -208 -58 -242 -9 -10 -22 -17 -29 -14
-7 3 -18 -9 -24 -27 -32 -81 -114 -246 -120 -242 -9 5 -99 -129 -126 -187 -21
-45 -44 -49 -105 -17 -44 22 -46 37 -8 57 l24 14 -25 -6 c-14 -3 -68 -11 -120
-17 -52 -5 -134 -16 -182 -22 -84 -12 -88 -12 -82 6 5 17 -1 17 -98 11 -83 -5
-110 -4 -133 9 -52 26 -119 45 -342 98 -364 85 -622 183 -770 293 -42 31 -63
41 -63 31 0 -29 -27 -15 -83 44 -31 33 -66 61 -79 63 -17 2 -24 11 -26 31 -2
17 1 27 9 27 7 0 -6 19 -30 41 -24 23 -64 74 -89 113 -24 39 -61 88 -81 110
l-36 38 35 -7 c34 -7 35 -7 18 12 -10 11 -18 28 -18 38 0 17 1 17 21 0 20 -19
20 -19 9 10 -30 80 -67 115 -138 134 l-41 11 16 46 c11 32 14 68 11 119 -4 62
-2 74 13 84 26 16 29 14 29 -16 0 -21 10 -8 40 55 22 46 62 120 89 165 27 45
53 95 56 110 13 52 133 177 265 276 47 36 77 62 68 58 -23 -8 -23 11 -2 42 17
23 167 99 214 107 42 8 152 45 206 70 28 13 87 29 132 35 80 12 80 12 66 34
-13 20 -12 24 7 41 24 21 39 22 289 10 140 -6 152 -5 125 8 l-30 14 31 1 c18
1 58 -13 89 -29z m-1751 -1087 c-2 -60 -4 -110 -4 -112 0 -2 -9 4 -20 14 -19
18 -20 17 -20 -7 0 -14 -7 -32 -16 -39 -14 -11 -20 -10 -40 14 -28 33 -29 47
-9 87 19 36 28 37 43 8 10 -20 10 -17 6 17 -5 34 -1 46 27 83 18 23 34 42 35
42 1 0 0 -48 -2 -107z m-157 -275 c-2 -18 -4 -4 -4 32 0 36 2 50 4 33 2 -18 2
-48 0 -65z m4960 -794 c-3 -3 -12 -4 -19 -1 -8 3 -5 6 6 6 11 1 17 -2 13 -5z
m-2047 -494 c0 -5 -4 -10 -9 -10 -5 0 -16 -3 -25 -6 -11 -4 -16 -1 -16 10 0
10 9 16 25 16 14 0 25 -4 25 -10z"/>
<path d="M24560 10641 c0 -5 6 -11 13 -14 6 -3 29 -12 50 -21 47 -21 47 -16
-1 18 -39 27 -62 33 -62 17z"/>
<path d="M24857 10518 c78 -81 111 -137 85 -146 -7 -2 9 -14 35 -28 46 -23 76
-27 33 -4 -12 6 -19 14 -17 17 3 3 33 -14 66 -36 34 -23 61 -39 61 -36 0 3 -9
23 -19 44 -25 47 -119 135 -219 204 -113 77 -114 77 -25 -15z"/>
<path d="M36658 9933 c6 -2 18 -2 25 0 6 3 1 5 -13 5 -14 0 -19 -2 -12 -5z"/>
<path d="M36618 9923 c7 -3 16 -2 19 1 4 3 -2 6 -13 5 -11 0 -14 -3 -6 -6z"/>
<path d="M36568 9913 c7 -3 16 -2 19 1 4 3 -2 6 -13 5 -11 0 -14 -3 -6 -6z"/>
<path d="M36348 9863 c7 -3 16 -2 19 1 4 3 -2 6 -13 5 -11 0 -14 -3 -6 -6z"/>
<path d="M36298 9853 c7 -3 16 -2 19 1 4 3 -2 6 -13 5 -11 0 -14 -3 -6 -6z"/>
<path d="M36260 9840 c0 -6 7 -10 15 -10 8 0 15 2 15 4 0 2 -7 6 -15 10 -8 3
-15 1 -15 -4z"/>
<path d="M36218 9823 c7 -3 16 -2 19 1 4 3 -2 6 -13 5 -11 0 -14 -3 -6 -6z"/>
<path d="M35858 9803 c7 -3 16 -2 19 1 4 3 -2 6 -13 5 -11 0 -14 -3 -6 -6z"/>
<path d="M35808 9793 c7 -3 16 -2 19 1 4 3 -2 6 -13 5 -11 0 -14 -3 -6 -6z"/>
<path d="M35720 9767 c-37 -8 -47 -12 -30 -14 14 -2 45 3 70 11 53 17 37 18
-40 3z"/>
<path d="M35460 9741 c-22 -7 -20 -8 17 -12 23 -2 39 -1 37 3 -2 3 6 9 18 11
15 3 10 4 -12 5 -19 0 -46 -3 -60 -7z"/>
<path d="M34888 9613 c7 -3 16 -2 19 1 4 3 -2 6 -13 5 -11 0 -14 -3 -6 -6z"/>
<path d="M34827 9599 c8 -8 16 -8 30 0 16 9 14 10 -11 11 -22 0 -27 -3 -19
-11z"/>
<path d="M34960 9586 l-35 -10 29 -4 c16 -2 33 1 39 7 16 16 5 19 -33 7z"/>
<path d="M34695 9550 c-19 -8 -19 -9 3 -9 12 -1 22 4 22 9 0 6 -1 10 -2 9 -2
0 -12 -4 -23 -9z"/>
<path d="M34648 9533 c7 -3 16 -2 19 1 4 3 -2 6 -13 5 -11 0 -14 -3 -6 -6z"/>
<path d="M34860 9531 c0 -5 -10 -7 -22 -5 -21 4 -21 4 -3 -4 12 -6 31 -5 48 0
34 12 34 18 2 18 -14 0 -25 -4 -25 -9z"/>
<path d="M34458 9523 c12 -2 30 -2 40 0 9 3 -1 5 -23 4 -22 0 -30 -2 -17 -4z"/>
<path d="M34690 9510 c-45 -7 -45 -7 15 -8 33 0 69 3 80 8 16 7 13 8 -15 8
-19 -1 -55 -4 -80 -8z"/>
<path d="M33921 9467 c-83 -22 -89 -32 -11 -17 29 5 70 10 91 10 22 0 39 4 39
9 0 18 -48 17 -119 -2z"/>
<path d="M34138 9453 c7 -3 16 -2 19 1 4 3 -2 6 -13 5 -11 0 -14 -3 -6 -6z"/>
<path d="M33875 9404 l-40 -14 50 6 c71 9 74 9 81 17 12 12 -49 6 -91 -9z"/>
<path d="M33988 9413 c7 -3 16 -2 19 1 4 3 -2 6 -13 5 -11 0 -14 -3 -6 -6z"/>
<path d="M34070 9385 c-62 -17 -76 -23 -52 -24 34 -1 130 25 147 40 13 12 3
11 -95 -16z"/>
<path d="M33808 9383 c7 -3 16 -2 19 1 4 3 -2 6 -13 5 -11 0 -14 -3 -6 -6z"/>
<path d="M33550 9339 c-59 -17 -61 -18 -20 -14 l45 5 -44 -20 c-31 -14 -41
-24 -34 -31 12 -12 103 9 148 35 17 10 22 15 13 12 -22 -7 -23 -2 -2 18 14 15
13 16 -13 15 -15 0 -57 -9 -93 -20z"/>
<path d="M33458 9313 c7 -3 16 -2 19 1 4 3 -2 6 -13 5 -11 0 -14 -3 -6 -6z"/>
<path d="M33408 9303 c7 -3 16 -2 19 1 4 3 -2 6 -13 5 -11 0 -14 -3 -6 -6z"/>
<path d="M33180 9280 c-56 -7 -120 -33 -120 -49 0 -5 -26 -18 -57 -29 l-58
-20 105 5 c58 3 102 3 99 -1 -14 -15 -117 -36 -176 -36 -35 0 -63 -4 -63 -9 0
-4 -35 -24 -79 -44 -109 -49 -123 -78 -20 -42 24 9 49 13 56 11 7 -3 36 6 65
19 29 13 87 29 128 36 111 16 132 22 144 41 15 25 -7 44 -74 62 -64 16 -64 16
100 46 82 14 94 18 55 18 -27 0 -75 -4 -105 -8z"/>
<path d="M33010 9250 c-20 -11 -28 -19 -19 -20 9 0 27 9 40 20 30 24 24 24
-21 0z"/>
<path d="M25637 9183 c-22 -29 -19 -37 6 -18 10 7 17 20 15 28 -2 11 -8 9 -21
-10z"/>
<path d="M32735 9200 c-18 -8 -17 -9 8 -9 15 -1 27 4 27 9 0 12 -8 12 -35 0z"/>
<path d="M33360 9190 l-25 -8 25 0 c14 0 34 3 45 8 l20 9 -20 -1 c-11 0 -31
-4 -45 -8z"/>
<path d="M32198 9093 c7 -3 16 -2 19 1 4 3 -2 6 -13 5 -11 0 -14 -3 -6 -6z"/>
<path d="M32648 9093 c7 -3 16 -2 19 1 4 3 -2 6 -13 5 -11 0 -14 -3 -6 -6z"/>
<path d="M32468 9072 c-107 -32 -77 -45 37 -16 36 9 62 20 59 25 -7 12 -30 10
-96 -9z"/>
<path d="M32424 8994 c-18 -15 -18 -15 6 -10 14 3 32 6 40 6 13 0 13 1 0 10
-20 13 -23 13 -46 -6z"/>
<path d="M31473 8949 c-29 -11 -53 -24 -53 -28 0 -15 94 11 113 30 23 24 7 24
-60 -2z"/>
<path d="M32073 8963 c9 -2 25 -2 35 0 9 3 1 5 -18 5 -19 0 -27 -2 -17 -5z"/>
<path d="M31885 8890 l-30 -8 30 0 c17 0 39 3 50 8 l20 9 -20 -1 c-11 0 -33
-4 -50 -8z"/>
<path d="M31818 8873 c6 -2 18 -2 25 0 6 3 1 5 -13 5 -14 0 -19 -2 -12 -5z"/>
<path d="M30803 8663 c9 -2 25 -2 35 0 9 3 1 5 -18 5 -19 0 -27 -2 -17 -5z"/>
<path d="M30708 8613 c7 -3 16 -2 19 1 4 3 -2 6 -13 5 -11 0 -14 -3 -6 -6z"/>
<path d="M30720 8567 c0 -25 17 -29 47 -13 25 14 26 15 6 16 -12 0 -28 3 -37
6 -10 4 -16 1 -16 -9z"/>
<path d="M30230 8537 c-51 -17 -59 -22 -39 -25 14 -1 51 7 82 18 97 36 63 42
-43 7z"/>
<path d="M30155 8463 c-11 -2 -60 -16 -110 -31 -84 -25 -88 -27 -55 -33 l35
-5 -57 -18 c-32 -10 -58 -22 -58 -27 0 -14 12 -11 81 20 35 16 103 41 151 57
54 17 83 31 75 36 -13 8 -29 9 -62 1z"/>
<path d="M30315 8440 c-57 -28 -58 -29 -22 -23 21 3 59 16 85 29 39 19 43 23
22 23 -14 1 -52 -12 -85 -29z"/>
<path d="M28090 8119 c0 -8 -3 -24 -6 -36 -5 -18 -2 -23 14 -23 18 0 20 3 12
31 -11 36 -20 49 -20 28z"/>
<path d="M23328 7893 c7 -3 16 -2 19 1 4 3 -2 6 -13 5 -11 0 -14 -3 -6 -6z"/>
<path d="M26100 7646 c-34 -9 -45 -17 -45 -31 0 -17 8 -20 52 -23 43 -2 56 1
70 17 13 15 29 21 60 21 24 0 43 5 43 10 0 6 -17 10 -39 10 -21 0 -51 2 -67 4
-16 3 -49 -1 -74 -8z"/>
<path d="M24300 7095 c-25 -27 -16 -32 25 -13 14 6 24 16 22 22 -6 19 -23 16
-47 -9z"/>
</g>
</svg>
