<?xml version="1.0" standalone="no"?>
<!DOCTYPE svg PUBLIC "-//W3C//DTD SVG 20010904//EN"
 "http://www.w3.org/TR/2001/REC-SVG-20010904/DTD/svg10.dtd">
<svg version="1.0" xmlns="http://www.w3.org/2000/svg"
 width="512.000000pt" height="512.000000pt" viewBox="0 0 512.000000 512.000000"
 preserveAspectRatio="xMidYMid meet">

<g transform="translate(0.000000,512.000000) scale(0.100000,-0.100000)"
fill="#000000" stroke="none">
<path d="M2635 5110 c-118 -25 -214 -79 -292 -165 -53 -57 -104 -147 -119
-207 l-6 -28 159 0 c152 0 161 -1 212 -26 63 -32 105 -90 116 -160 3 -25 9
-44 13 -42 4 2 32 17 62 33 52 28 62 30 165 30 123 0 165 -14 243 -81 22 -19
42 -34 45 -34 3 0 10 30 17 66 59 311 -174 605 -490 619 -47 2 -103 0 -125 -5z"/>
<path d="M2079 4541 c-22 -18 -24 -28 -27 -121 -6 -174 6 -200 94 -200 51 0
54 -2 54 -24 l0 -25 -181 -3 -181 -3 -29 -33 -29 -33 2 -237 3 -237 114 -7
c63 -4 128 -12 144 -18 17 -5 32 -9 33 -7 2 2 -10 22 -26 46 -37 58 -55 149
-40 214 60 268 395 338 544 113 111 -168 32 -393 -162 -457 -20 -6 -66 -9
-107 -7 l-72 5 30 -44 31 -43 234 0 c319 0 322 2 322 180 l0 99 -95 128 c-109
147 -152 225 -161 294 l-7 49 -78 0 c-78 0 -79 0 -79 25 0 24 3 25 54 25 89 0
100 21 94 190 -4 157 7 150 -253 150 -185 0 -205 -2 -226 -19z m361 -151 l0
-50 -135 0 -135 0 0 43 c0 24 3 47 7 50 3 4 64 7 135 7 l128 0 0 -50z m-472
-342 c28 -28 7 -78 -33 -78 -27 0 -45 18 -45 45 0 27 18 45 45 45 12 0 26 -5
33 -12z"/>
<path d="M2835 4383 c-120 -67 -160 -227 -82 -337 77 -111 695 -946 716 -969
55 -60 151 -89 227 -68 121 33 197 155 172 275 -8 34 -259 590 -338 746 -54
106 -128 154 -230 148 l-59 -3 -63 85 c-87 116 -128 144 -221 148 -63 2 -78
-1 -122 -25z"/>
<path d="M2215 3957 c-187 -106 -70 -385 138 -332 106 27 164 142 122 242 -20
48 -41 71 -87 94 -51 26 -123 24 -173 -4z"/>
<path d="M1325 3657 c-160 -89 -305 -172 -323 -185 -75 -54 -109 -167 -78
-260 24 -71 97 -137 169 -151 29 -6 236 -23 460 -37 482 -30 483 -29 560 56
107 119 77 293 -63 362 -54 27 -62 28 -360 43 -168 8 -318 17 -335 18 -22 2
13 17 123 52 l152 50 0 107 c0 60 -3 108 -7 108 -5 -1 -139 -74 -298 -163z"/>
<path d="M2970 3451 c-15 -58 -68 -121 -125 -150 -48 -25 -55 -26 -286 -29
l-236 -3 -6 -69 c-7 -87 -45 -167 -109 -231 l-48 -48 0 -273 0 -273 -338 -194
c-185 -107 -358 -210 -384 -228 -57 -41 -102 -112 -117 -184 -29 -148 -202
-1468 -197 -1507 14 -102 73 -184 168 -233 59 -31 174 -32 239 -3 65 30 114
78 144 139 23 47 36 127 116 711 49 362 91 659 92 660 1 1 190 110 421 243
l418 242 93 -3 92 -3 -175 -415 c-167 -394 -176 -419 -180 -491 -5 -95 19
-156 86 -221 46 -44 1045 -788 1131 -843 60 -37 145 -52 215 -36 193 43 286
254 189 432 -32 60 4 31 -533 429 -266 197 -434 328 -432 337 2 7 60 145 129
306 69 161 137 324 151 362 l26 70 4 465 3 465 -54 28 c-71 37 -111 80 -262
287 -71 96 -150 203 -176 238 l-48 63 -11 -40z"/>
</g>
</svg>
