<?xml version="1.0" standalone="no"?>
<!DOCTYPE svg PUBLIC "-//W3C//DTD SVG 20010904//EN"
 "http://www.w3.org/TR/2001/REC-SVG-20010904/DTD/svg10.dtd">
<svg version="1.0" xmlns="http://www.w3.org/2000/svg"
 width="200.000000pt" height="200.000000pt" viewBox="0 0 200.000000 200.000000"
 preserveAspectRatio="xMidYMid meet">

<g transform="translate(0.000000,200.000000) scale(0.100000,-0.100000)"
fill="#000000" stroke="none">
<path d="M867 1909 c-210 -27 -438 -153 -571 -316 -143 -173 -210 -360 -210
-583 0 -396 243 -735 615 -858 448 -148 918 56 1115 484 100 216 105 491 14
716 -100 245 -301 433 -551 516 -143 47 -267 59 -412 41z m-152 -719 c144
-144 158 -162 150 -182 -16 -37 -308 -318 -330 -318 -29 1 -335 300 -335 327
0 14 37 58 108 127 l107 105 38 -37 c20 -20 37 -46 37 -58 0 -12 7 -27 15 -34
21 -18 21 -185 0 -206 -24 -25 -19 -63 11 -76 46 -21 81 26 55 76 -10 20 -20
186 -11 186 14 0 70 -67 70 -85 0 -27 18 -45 45 -45 27 0 45 18 45 45 0 26
-18 45 -44 45 -27 0 -96 69 -96 95 0 26 -18 45 -44 45 -11 0 -37 17 -58 37
l-38 37 37 38 c20 21 46 38 58 38 13 0 77 -57 180 -160z m777 143 c38 -34 14
-94 -39 -95 -56 -2 -80 42 -53 93 13 24 66 26 92 2z m198 -87 l0 -45 48 -3
c45 -3 47 -4 50 -35 l3 -33 -50 0 -51 0 0 -89 c0 -102 9 -117 64 -107 30 6 34
4 40 -20 10 -38 -5 -48 -84 -52 -63 -4 -71 -2 -94 21 -25 25 -26 31 -26 137
l0 110 -25 0 c-21 0 -25 5 -25 30 0 20 5 30 15 30 25 0 65 46 65 75 0 22 4 25
35 25 35 0 35 0 35 -44z m-397 -66 c47 0 48 -1 45 -27 -2 -20 -9 -29 -24 -31
-19 -3 -21 -8 -16 -48 9 -81 -36 -124 -131 -124 -37 0 -57 -4 -60 -14 -4 -10
14 -15 81 -19 107 -8 136 -25 140 -85 4 -55 -11 -80 -61 -103 -52 -23 -172
-26 -222 -4 -46 18 -61 56 -40 97 10 21 12 36 5 48 -15 27 -13 35 16 70 24 28
25 32 11 48 -60 67 -29 171 58 195 11 3 49 4 85 2 36 -3 87 -5 113 -5z m217
-126 c0 -127 1 -136 20 -141 13 -3 20 -14 20 -29 0 -24 -2 -24 -95 -24 -94 0
-95 0 -95 24 0 17 7 26 25 30 25 6 25 8 25 105 0 93 -1 98 -24 109 -18 8 -22
16 -19 36 5 25 8 26 74 26 l69 0 0 -136z"/>
<path d="M1116 1104 c-19 -18 -21 -55 -4 -72 7 -7 26 -12 43 -12 38 0 55 16
55 50 0 14 -5 31 -12 38 -17 17 -64 15 -82 -4z"/>
<path d="M1080 805 c0 -20 6 -25 37 -31 46 -9 107 6 111 27 4 20 -25 29 -95
29 -50 0 -53 -2 -53 -25z"/>
</g>
</svg>
