<?xml version="1.0" standalone="no"?>
<!DOCTYPE svg PUBLIC "-//W3C//DTD SVG 20010904//EN"
 "http://www.w3.org/TR/2001/REC-SVG-20010904/DTD/svg10.dtd">
<svg version="1.0" xmlns="http://www.w3.org/2000/svg"
 width="1200.000000pt" height="1200.000000pt" viewBox="0 0 1200.000000 1200.000000"
 preserveAspectRatio="xMidYMid meet">

<g transform="translate(0.000000,1200.000000) scale(0.100000,-0.100000)"
fill="#000000" stroke="none">
<path d="M5045 9296 c-314 -61 -570 -261 -706 -550 -65 -140 -83 -228 -84
-406 0 -164 12 -239 61 -363 168 -428 621 -682 1077 -602 386 67 684 347 783
735 29 113 26 354 -4 470 -52 195 -181 393 -335 516 -97 77 -250 155 -362 185
-103 27 -328 35 -430 15z"/>
<path d="M3615 7710 c-161 -25 -338 -103 -486 -215 -106 -79 -184 -162 -326
-348 -480 -624 -716 -1110 -914 -1886 -42 -164 -51 -213 -56 -320 -9 -210 26
-367 113 -508 111 -178 299 -306 604 -411 183 -63 255 -76 379 -68 58 3 124 9
145 12 37 6 24 -6 -170 -168 -235 -196 -271 -232 -314 -318 -159 -315 10 -689
353 -776 128 -33 299 -6 414 65 42 26 1711 1402 1712 1411 0 3 -41 28 -91 55
-382 207 -788 550 -1050 886 l-59 76 -142 -23 c-78 -13 -161 -26 -184 -30
l-43 -6 25 55 c13 30 52 111 86 178 53 108 60 126 49 143 -78 124 -197 388
-266 590 -108 313 -177 687 -154 832 23 141 118 265 250 328 120 56 300 46
405 -24 55 -36 122 -110 153 -168 33 -63 48 -122 57 -227 10 -112 84 -435 99
-435 9 0 112 171 142 235 95 206 124 460 74 647 -22 79 -81 180 -139 239 -65
64 -201 136 -311 163 -79 20 -273 28 -355 16z"/>
<path d="M3579 7207 c-139 -40 -241 -157 -255 -294 -18 -165 68 -572 183 -878
310 -822 931 -1473 1774 -1861 159 -73 383 -158 476 -181 161 -40 323 40 395
193 28 61 30 71 26 157 -3 74 -9 102 -30 142 -54 103 -107 141 -283 204 -454
164 -823 389 -1120 686 -399 398 -660 930 -728 1486 -17 132 -43 196 -108 259
-85 82 -221 118 -330 87z"/>
<path d="M6781 5719 c-24 -5 -46 -10 -48 -13 -3 -2 36 -32 86 -66 115 -77 217
-172 258 -242 17 -29 50 -116 73 -193 23 -77 58 -171 77 -208 69 -130 246
-290 423 -381 125 -64 181 -80 280 -81 75 0 90 3 132 27 25 16 56 40 67 54
l21 27 26 -59 c44 -99 101 -284 123 -399 l21 -108 -24 -66 c-58 -152 -118
-415 -153 -661 -10 -69 -22 -128 -28 -132 -5 -4 -21 -8 -34 -8 -99 0 -356
-115 -496 -220 -90 -67 -265 -226 -265 -241 0 -5 342 -9 876 -9 l875 0 -20 28
c-39 56 -203 222 -264 268 -122 93 -293 157 -452 171 -60 5 -75 9 -75 22 0 41
32 299 51 410 37 219 114 437 223 630 58 102 76 125 84 102 10 -31 66 -80 114
-101 41 -17 70 -22 137 -22 152 1 318 60 493 175 163 106 230 187 314 377 24
55 55 118 68 138 60 93 196 195 351 262 77 33 77 34 51 47 -82 43 -380 79
-576 70 -392 -19 -666 -117 -836 -300 -103 -110 -152 -237 -158 -409 l-3 -98
-51 -72 c-27 -40 -66 -100 -85 -132 -21 -35 -38 -54 -40 -45 -36 126 -98 295
-142 386 l-55 114 10 62 c32 196 -20 384 -142 522 -172 192 -489 328 -878 375
-100 12 -346 11 -409 -1z m985 -510 c133 -89 311 -263 367 -359 40 -68 42 -90
18 -153 l-11 -29 -31 59 c-74 142 -283 369 -484 527 -55 44 -107 86 -115 94
-31 29 151 -70 256 -139z m1584 -203 c0 -2 -33 -23 -72 -46 -271 -160 -543
-378 -629 -504 -13 -20 -27 -36 -30 -36 -4 0 -11 23 -16 51 -10 49 -10 51 27
98 113 142 328 285 590 390 134 54 130 53 130 47z"/>
<path d="M4903 5362 c-21 -6 -14 -15 65 -80 108 -90 302 -221 447 -301 60 -34
113 -61 116 -61 12 0 -12 84 -42 148 -63 132 -207 248 -355 287 -58 15 -189
19 -231 7z"/>
<path d="M6855 4388 c-48 -17 -163 -95 -220 -149 l-52 -49 -64 24 c-51 19 -63
28 -60 43 9 43 6 58 -15 61 -13 2 -24 -5 -30 -17 -9 -20 -10 -20 -76 9 l-68
28 0 -36 c0 -21 -12 -68 -26 -107 -35 -98 -35 -96 21 -115 45 -15 50 -20 50
-46 0 -23 5 -30 23 -32 18 -3 25 3 33 28 12 33 9 33 94 1 l50 -19 7 -67 c16
-159 62 -286 118 -327 47 -34 644 -171 738 -169 147 3 322 72 376 148 65 94
22 242 -119 408 -34 41 -79 71 -223 153 -99 57 -241 134 -315 172 -140 73
-175 82 -242 58z"/>
</g>
</svg>
