<?xml version="1.0" standalone="no"?>
<!DOCTYPE svg PUBLIC "-//W3C//DTD SVG 20010904//EN"
 "http://www.w3.org/TR/2001/REC-SVG-20010904/DTD/svg10.dtd">
<svg version="1.0" xmlns="http://www.w3.org/2000/svg"
 width="512.000000pt" height="512.000000pt" viewBox="0 0 512.000000 512.000000"
 preserveAspectRatio="xMidYMid meet">

<g transform="translate(0.000000,512.000000) scale(0.100000,-0.100000)"
fill="#000000" stroke="none">
<path d="M1366 4975 c-193 -49 -354 -206 -412 -400 -27 -91 -25 -231 5 -323
77 -237 294 -395 542 -394 95 0 172 18 251 58 26 13 51 24 56 24 5 0 17 -30
27 -66 l18 -66 -45 -46 c-62 -65 -83 -98 -107 -170 -37 -108 -26 -245 27 -348
59 -115 190 -207 323 -229 34 -5 37 -9 50 -57 13 -49 13 -55 -8 -97 -28 -54
-28 -61 -3 -234 28 -191 65 -324 163 -595 54 -150 81 -235 73 -238 -6 -2 -86
-22 -179 -44 -92 -22 -180 -46 -195 -54 -30 -16 -74 -60 -90 -91 -5 -11 -70
-243 -143 -515 -137 -514 -147 -566 -116 -626 20 -40 79 -92 115 -101 51 -14
116 -8 157 13 75 39 84 62 210 534 64 239 119 438 123 441 10 9 555 139 560
134 2 -2 57 -154 122 -337 65 -184 124 -347 133 -364 38 -72 51 -78 559 -255
266 -93 497 -171 514 -175 69 -13 163 34 202 101 33 58 28 157 -11 209 -16 20
-40 44 -54 53 -14 9 -217 83 -451 165 -234 81 -426 149 -428 151 -1 1 -88 247
-193 546 l-192 544 -89 401 c-49 220 -95 417 -101 436 -11 34 -4 52 182 465
l193 430 73 2 c88 3 202 39 276 87 309 199 354 623 93 881 -119 118 -264 173
-426 161 -150 -11 -265 -61 -366 -161 -68 -67 -107 -129 -140 -219 l-22 -61
-292 0 -292 0 -22 61 c-63 173 -201 306 -373 360 -72 22 -226 27 -297 9z m239
-325 c47 -22 75 -45 100 -84 l19 -29 -129 6 c-117 5 -133 3 -161 -14 -64 -39
-79 -124 -33 -183 34 -44 55 -49 186 -47 139 2 149 -4 88 -58 -53 -46 -93 -63
-160 -69 -155 -12 -275 113 -262 274 14 174 192 277 352 204z m1700 1 c125
-55 181 -208 121 -336 -78 -169 -311 -195 -424 -47 l-25 33 131 -2 c146 -2
166 4 202 64 24 39 25 68 4 113 -30 63 -61 73 -208 67 -126 -6 -128 -6 -118
14 28 52 98 98 177 116 30 8 95 -3 140 -22z m-645 -393 c27 -92 89 -191 158
-251 17 -16 32 -34 32 -40 0 -22 -425 -956 -432 -949 -3 4 -11 25 -17 46 -10
38 -9 40 35 84 55 56 100 146 116 230 24 130 -26 288 -124 386 -58 57 -155
109 -225 121 -24 4 -43 8 -43 9 0 2 -25 88 -55 191 -30 104 -55 195 -55 202 0
10 62 13 298 13 l299 0 13 -42z"/>
</g>
</svg>
