<?xml version="1.0" standalone="no"?>
<!DOCTYPE svg PUBLIC "-//W3C//DTD SVG 20010904//EN"
 "http://www.w3.org/TR/2001/REC-SVG-20010904/DTD/svg10.dtd">
<svg version="1.0" xmlns="http://www.w3.org/2000/svg"
 width="1200.000000pt" height="1200.000000pt" viewBox="0 0 1200.000000 1200.000000"
 preserveAspectRatio="xMidYMid meet">

<g transform="translate(0.000000,1200.000000) scale(0.100000,-0.100000)"
fill="#000000" stroke="none">
<path d="M6110 8722 c0 -6 4 -13 9 -16 19 -12 71 -155 81 -225 23 -142 -16
-261 -138 -424 -85 -114 -113 -162 -146 -254 -104 -295 -6 -624 240 -799 63
-45 204 -114 234 -114 8 0 -8 15 -35 34 -98 66 -169 162 -200 270 -13 45 -16
85 -13 161 7 148 34 202 213 420 126 152 181 307 173 487 -9 199 -64 279 -261
379 -67 34 -130 68 -139 77 -11 9 -18 10 -18 4z"/>
<path d="M7347 8661 c92 -187 80 -375 -33 -534 -120 -170 -164 -240 -184 -294
-85 -227 -60 -483 66 -660 98 -138 255 -250 389 -278 27 -5 27 -4 -10 16 -54
30 -144 124 -177 185 -68 126 -76 288 -21 419 24 57 65 116 156 225 125 151
177 260 198 421 21 153 -20 300 -107 384 -24 24 -84 62 -139 89 -53 25 -113
57 -133 70 l-37 23 32 -66z"/>
<path d="M4941 8655 c43 -92 59 -158 59 -250 0 -104 -30 -188 -101 -289 -30
-42 -75 -106 -101 -143 -45 -65 -83 -149 -110 -243 -7 -26 -12 -99 -12 -175 0
-116 3 -139 28 -210 37 -109 77 -175 153 -256 73 -77 165 -139 259 -175 85
-32 98 -30 42 5 -214 136 -288 416 -168 640 17 31 73 108 126 171 181 218 250
438 199 635 -36 135 -93 200 -245 272 -52 25 -107 54 -122 64 -14 11 -29 19
-32 19 -3 0 9 -29 25 -65z"/>
<path d="M5640 6578 l-125 -10 -62 -44 c-335 -239 -732 -649 -1012 -1046 -41
-59 -76 -106 -78 -105 -4 5 156 437 217 584 34 82 99 221 144 309 l83 161 -80
-24 c-1012 -311 -1766 -963 -1912 -1654 -69 -324 13 -616 235 -840 344 -346
969 -535 2045 -616 296 -22 1440 -26 1740 -5 1091 76 1737 260 2094 597 437
414 356 1084 -202 1672 -145 153 -392 346 -599 469 -123 72 -401 214 -421 214
-20 0 -317 -306 -432 -445 -97 -116 -233 -296 -290 -383 -15 -23 -29 -41 -31
-39 -5 5 146 416 210 571 32 76 89 201 127 277 38 76 69 142 69 147 0 16 -240
84 -465 131 l-140 30 -38 -26 c-66 -46 -248 -200 -367 -312 -116 -109 -289
-296 -412 -446 -56 -68 -238 -314 -275 -372 -25 -39 131 392 217 597 68 163
196 416 261 515 28 44 53 85 56 92 4 10 -37 13 -213 12 -121 -1 -275 -6 -344
-11z"/>
</g>
</svg>
