<?xml version="1.0" standalone="no"?>
<!DOCTYPE svg PUBLIC "-//W3C//DTD SVG 20010904//EN"
 "http://www.w3.org/TR/2001/REC-SVG-20010904/DTD/svg10.dtd">
<svg version="1.0" xmlns="http://www.w3.org/2000/svg"
 width="256.000000pt" height="256.000000pt" viewBox="0 0 256.000000 256.000000"
 preserveAspectRatio="xMidYMid meet">

<g transform="translate(0.000000,256.000000) scale(0.100000,-0.100000)"
fill="#000000" stroke="none">
<path d="M816 2315 c-100 -26 -162 -130 -135 -229 44 -165 253 -199 350 -58
19 29 24 48 24 102 0 56 -4 73 -27 108 -46 69 -127 98 -212 77z"/>
<path d="M825 1900 c-62 -10 -130 -47 -175 -96 l-41 -45 -35 31 c-48 41 -110
42 -155 2 -37 -33 -42 -55 -60 -300 -12 -154 -11 -175 3 -205 23 -48 79 -73
130 -60 21 6 41 7 43 3 3 -4 20 -15 39 -24 33 -16 34 -18 41 -92 10 -107 4
-139 -66 -319 -34 -88 -62 -168 -61 -177 0 -9 -5 -19 -12 -21 -12 -5 -216
-346 -216 -361 0 -3 346 -6 770 -6 547 0 770 3 770 11 0 13 -493 899 -500 899
-3 0 -45 -47 -94 -104 -132 -156 -126 -154 -105 -38 24 129 24 193 -1 241 -19
38 -72 91 -91 91 -5 0 -9 43 -9 96 0 87 2 96 18 89 107 -41 180 -28 318 56
115 70 144 98 144 140 0 39 -48 89 -84 89 -14 0 -73 -23 -130 -52 -128 -64
-142 -62 -195 27 -58 95 -146 140 -246 125z m-216 -415 c-11 -115 -17 -215
-15 -222 7 -16 -6 -17 -22 -1 -8 8 -8 17 -1 30 6 11 17 101 26 201 8 100 17
188 19 196 13 40 11 -14 -7 -204z m286 -391 c34 -36 38 -72 26 -205 -14 -148
-14 -157 4 -161 10 -2 -7 -29 -56 -86 l-71 -83 -57 7 c-98 12 -97 -2 -5 201
60 131 87 205 99 264 8 45 15 83 15 85 0 12 24 0 45 -22z"/>
<path d="M2106 1234 c-105 -134 -195 -243 -200 -241 -6 2 -39 38 -73 80 l-62
76 -124 -155 -125 -154 169 -302 168 -303 223 0 223 0 3 623 c1 342 -1 622 -5
622 -5 -1 -93 -111 -197 -246z"/>
</g>
</svg>
